{"title":"Mon.Roi.[My.King].2015.720p.BRRip.x264.AC3.HORiZON-ArtSubs","uid":13938901,"size":1859304464,"categoryP":"video","categoryS":"movies","magnet":"?xt=urn:btih:2c1dcf86a7fb815e8f03ec112cb50dde32ac9cc9&amp;dn=Mon.Roi.%5BMy.King%5D.2015.720p.BRRip.x264.AC3.HORiZON-ArtSubs&amp;tr=udp%3A%2F%2Ftracker.leechers-paradise.org%3A6969&amp;tr=udp%3A%2F%2Fzer0day.ch%3A1337&amp;tr=udp%3A%2F%2Fopen.demonii.com%3A1337&amp;tr=udp%3A%2F%2Ftracker.coppersurfer.tk%3A6969&amp;tr=udp%3A%2F%2Fexodus.desync.com%3A6969","seeders":56,"leechers":8,"uploader":"noriegaRJ","files":1,"time":1458451200,"description":"Title: Mon Roi aka My King\r\n\r\nRelease: Mon.Roi.[My.King].2015.720p.BRRip.x264.AC3.HORiZON-ArtSubs\r\n\r\n\r\nIMDB Link:                                                            \nhttp://www.imdb.com/title/tt3478962/\r\n\r\n\r\nPlot: Tony is admitted to a rehabilitation center after a serious ski accident. Dependent on the medical staff and pain relievers, she takes time to look back on a turbulent relationship that she experienced with Georgio. Why did they love each other? Who is this man that she loved so deeply? How did she allow herself to submit to this suffocating and destructive passion? For Tony, a difficult process of healing is in front of her, physical work which may finally set her free.\r\n\r\n\r\nFRENCH SUBTITLE INSIDE MKV FILE.\r\n\r\n\r\nGeneral\r\nComplete name                            : Mon.Roi.[My.King].2015.720p.BRRip.x264.AC3.HORiZON-ArtSubs\r\nFormat                                   : Matroska\r\nFormat version                           : Version 2\r\nFile size                                : 1.73 GiB\r\nDuration                                 : 2h 5mn\r\nOverall bit rate                         : 1 981 Kbps\r\nWriting application                      : HandBrake 0.9.5\r\nWriting library                          : libmkv 0.6.4.1\r\n\r\nVideo\r\nID                                       : 1\r\nFormat                                   : AVC\r\nFormat/Info                              : Advanced Video Codec\r\nFormat profile                           :   \r\nFormat settings, CABAC                   : Yes\r\nFormat settings, ReFrames                : 4 frames\r\nCodec ID                                 : V_MPEG4/ISO/AVC\r\nDuration                                 : 2h 5mn\r\nBit rate                                 : 1 302 Kbps\r\nNominal bit rate                         : 1 368 Kbps\r\nWidth                                    : 1 280 pixels\r\nHeight                                   : 528 pixels\r\nDisplay aspect ratio                     : 2.40:1\r\nOriginal display aspect ratio            : 2.40:1\r\nFrame rate mode                          : Constant\r\nFrame rate                               : 24.000 fps\r\nColor space                              : YUV\r\nChroma subsampling                       : 4:2:0\r\nBit depth                                : 8 bits\r\nScan type                                : Progressive\r\nBits/(Pixel*Frame)                       : 0.080\r\nStream size                              : 1.14 GiB (66%)\r\nWriting library                          : x264 core 112\r\nLanguage                                 : English\r\nDefault                                  : Yes\r\nForced                                   : No\r\nColor primaries                          : BT.709\r\nTransfer characteristics                 : BT.709\r\nMatrix coefficients                      : BT.709\r\n\r\nAudio\r\nID                                       : 2\r\nFormat                                   : AC-3\r\nFormat/Info                              : Audio Coding 3\r\nMode extension                           : CM (complete main)\r\nFormat settings, Endianness              : Big\r\nCodec ID                                 : A_AC3\r\nDuration                                 : 2h 5mn\r\nBit rate mode                            : Constant\r\nBit rate                                 : 640 Kbps\r\nChannel count                            : 6 channels\r\nChannel positions                        : Front: L C R, Side: L R, LFE\r\nSampling rate                            : 48.0 KHz\r\nBit depth                                : 16 bits\r\nCompression mode                         : Lossy\r\nStream size                              : 573 MiB (32%)\r\nLanguage                                 : Finnish\r\nDefault                                  : Yes\r\nForced                                   : No\r\n\r\nText\r\nID                                       : 3\r\nFormat                                   : UTF-8\r\nCodec ID                                 : S_TEXT/UTF8\r\nCodec ID/Info                            : UTF-8 Plain Text\r\nLanguage                                 : French\r\nDefault                                  : No\r\nForced                                   : No\r\n\r\n\r\n\r\nThanks to those helping me seed. Leechers remember, the community depends on you. If nobody shares, the freebies go away. Remember, the only reason you can download this free movie is because others are generous enough to keep sharing it with you. If nobody shares, everybody loses, so even if its for an extra hour or two after you get it, remember, others want to see it too, and they can't without you.\r\n\r\n\r\nSEE MY OTHERS UPLOADS:                                                                                    \nhttp://thepiratebay.se/user/noriegaRJ\r\n\r\nAND SEE THIS ANOTHERS UPLOADS FROM &quot;HORiZON-ArtSubs&quot;:                                    \nhttp://thepiratebay.se/user/artsubs                                    \nhttp://thepiratebay.se/user/lletaif","torrent":{"xt":"urn:btih:2c1dcf86a7fb815e8f03ec112cb50dde32ac9cc9","amp;dn":"Mon.Roi.%5BMy.King%5D.2015.720p.BRRip.x264.AC3.HORiZON-ArtSubs","amp;tr":["udp%3A%2F%2Ftracker.leechers-paradise.org%3A6969","udp%3A%2F%2Fzer0day.ch%3A1337","udp%3A%2F%2Fopen.demonii.com%3A1337","udp%3A%2F%2Ftracker.coppersurfer.tk%3A6969","udp%3A%2F%2Fexodus.desync.com%3A6969"],"infoHash":"2c1dcf86a7fb815e8f03ec112cb50dde32ac9cc9","infoHashBuffer":{"type":"Buffer","data":[44,29,207,134,167,251,129,94,143,3,236,17,44,181,13,222,50,172,156,201]},"announce":[],"urlList":[]}}